<?xml version="1.0" encoding="UTF-8"?>
<svg id="Layer_2" data-name="Layer 2" xmlns="http://www.w3.org/2000/svg" viewBox="0 0 32.54 31.86">
  <defs>
    <style>
      .cls-1 {
        fill: #1e3050;
      }
    </style>
  </defs>
  <g id="Layer_1-2" data-name="Layer 1">
    <g>
      <path class="cls-1" d="m5.08,0C5.21,0,5.35,0,5.48,0c.19.03.37.1.56.1,6.06,0,12.12,0,18.18,0,1.02,0,2.05,0,3.07,0,.73.22,1.52.32,2.18.68,2.11,1.14,3.04,3.04,3.05,5.38.03,5.88.01,11.76,0,17.64,0,.95-.03,1.91-.1,2.86-.14,1.74-.96,3.09-2.36,4.12-.75.56-1.6.84-2.47,1.09H4.78s-.06-.09-.1-.09c-1.23-.18-2.28-.77-3.09-1.66C.54,28.95,0,27.59,0,25.96c.04-6.64.01-13.28.02-19.92,0-.5.02-1,.13-1.48C.59,2.62,1.71,1.23,3.58.51,4.07.32,4.58.17,5.08,0Zm12.24,22.48c-.05-.21-.07-.36-.12-.51-.71-2.03-1.41-4.05-2.13-6.08-.87-2.45-1.74-4.89-2.62-7.33-.05-.13-.2-.31-.31-.31-1.15-.02-2.31-.01-3.35-.01-1.44,4.84-3.27,9.46-4.82,14.23.93,0,1.8.01,2.67-.01.12,0,.31-.17.35-.31.31-.87.59-1.75.86-2.64.09-.3.22-.43.55-.43,1.43.02,2.86.01,4.29,0,.28,0,.41.08.49.36.27.89.57,1.77.89,2.64.06.15.23.37.36.37.94.03,1.87.02,2.88.02Zm3.85-4.66c.18,0,.36,0,.54,0,1.8.03,3.59.06,5.39.08.6,0,.69-.11.69-.7,0-.54.03-1.08,0-1.62-.11-1.48-.74-2.67-2.04-3.45-.9-.54-1.89-.63-2.92-.61-1.21.03-2.3.4-3.12,1.29-1.64,1.78-2.06,3.89-1.45,6.2.46,1.74,1.52,3,3.28,3.46.9.24,1.88.28,2.81.24.77-.03,1.54-.3,2.31-.49.09-.02.21-.18.21-.28.02-.7,0-1.41,0-2.11-.1-.01-.15-.03-.2-.02-.08.01-.16.04-.24.06-1.28.27-2.55.59-3.86.05-.83-.34-1.48-1.24-1.41-2.11Z"/>
      <path class="cls-1" d="m27.28,0s0,.06,0,.09c-1.02,0-2.05,0-3.07,0-6.06,0-12.12,0-18.18,0-.19,0-.37-.06-.56-.1,7.27,0,14.53,0,21.8,0Z"/>
      <path class="cls-1" d="m12.14,16.36h-3.32c.55-1.82,1.08-3.61,1.67-5.55.58,1.87,1.12,3.61,1.65,5.35,0,.06,0,.13,0,.19Z"/>
      <path class="cls-1" d="m12.14,16.36c0-.06,0-.13,0-.19,0,.06,0,.13,0,.19Z"/>
      <path class="cls-1" d="m24.94,15.8h-3.76c-.13-.9.74-1.87,1.73-1.95,1.26-.1,2.2.77,2.03,1.95Z"/>
    </g>
  </g>
</svg>