<?xml version="1.0" encoding="UTF-8"?>
<svg id="Layer_2" data-name="Layer 2" xmlns="http://www.w3.org/2000/svg" viewBox="0 0 31.53 30.74">
  <defs>
    <style>
      .cls-1 {
        fill: #1e3050;
      }
    </style>
  </defs>
  <g id="Layer_1-2" data-name="Layer 1">
    <g>
      <path class="cls-1" d="m31.52,25.48c-.03.22-.04.45-.09.66-.06.28-.12.56-.22.83-.55,1.6-1.63,2.71-3.18,3.37-.38.16-.77.26-1.17.33-.29.05-.59.07-.88.07-6.8,0-13.6,0-20.4,0-.24,0-.47,0-.71-.04-.21-.03-.43-.08-.64-.13-.21-.05-.43-.1-.63-.19-.29-.12-.59-.26-.86-.42-1.03-.6-1.77-1.46-2.26-2.54-.18-.41-.31-.84-.39-1.28-.06-.34-.09-.67-.09-1.02C0,18.61,0,12.09,0,5.57c0-.08,0-.15,0-.23,0-.03,0-.07,0-.1,0-.05.02-.11.02-.16,0-.29.07-.57.14-.85.05-.21.11-.42.18-.62.28-.73.69-1.38,1.24-1.94.46-.47.98-.85,1.58-1.13.43-.21.88-.35,1.35-.44C4.98.02,5.43,0,5.89,0c6.66,0,13.33,0,19.99,0,.2,0,.4.03.6.05.1,0,.2.02.29.03.19.03.37.05.56.1.86.22,1.64.62,2.31,1.22.64.57,1.14,1.25,1.46,2.05.09.23.18.47.24.71.06.24.08.5.13.74.08.38.06.76.06,1.14,0,6.42,0,12.85,0,19.27v.16Zm-21.57-8.16c.09,0,.15,0,.22,0,.32,0,.63,0,.95.01.76,0,1.52-.04,2.27-.22,1-.23,1.88-.67,2.57-1.45.4-.45.69-.96.85-1.53.25-.87.3-1.75.12-2.63-.16-.84-.54-1.57-1.14-2.17-.57-.56-1.24-.93-2-1.17-.67-.21-1.36-.3-2.05-.32-.61-.01-1.23,0-1.84,0-.84.01-1.68.03-2.52.04-.26,0-.27,0-.27.27,0,4.43,0,8.85,0,13.28,0,.04,0,.07,0,.11,0,.13.04.16.18.17.03,0,.05,0,.08,0,.78,0,1.56,0,2.34,0,.03,0,.06,0,.09,0,.1,0,.15-.06.16-.16,0-.03,0-.06,0-.09,0-1.32,0-2.64,0-3.96,0-.05,0-.11,0-.18Zm8.45,2.71h0c0,.38,0,.76,0,1.13,0,.13.06.22.18.27.11.04.21.09.32.13.77.29,1.58.41,2.4.44.51.02,1.02,0,1.53-.08.57-.09,1.12-.25,1.62-.54.68-.4,1.18-.96,1.42-1.72.16-.48.19-.97.12-1.46-.04-.33-.14-.65-.31-.94-.26-.45-.62-.8-1.06-1.07-.57-.35-1.16-.64-1.79-.87-.4-.14-.78-.31-1.14-.52-.14-.08-.26-.19-.38-.3-.1-.1-.15-.22-.15-.37,0-.27.16-.5.43-.59.23-.08.46-.11.7-.12.34,0,.67,0,1.01.05.57.08,1.13.2,1.66.44.07.03.15.07.22.1.16.07.25.02.26-.16,0-.01,0-.02,0-.03,0-.68,0-1.35,0-2.03,0-.04,0-.08-.01-.12,0-.1-.06-.16-.15-.2-.27-.11-.54-.2-.82-.25-.51-.09-1.03-.14-1.55-.16-.65-.02-1.29,0-1.92.17-.72.19-1.37.52-1.86,1.1-.69.82-.89,1.75-.64,2.78.16.64.54,1.15,1.05,1.54.55.42,1.16.73,1.8.98.38.15.75.3,1.12.46.19.08.37.19.51.34.11.11.19.24.19.4,0,.28-.13.47-.38.58-.19.09-.39.13-.6.15-.39.05-.78.02-1.18-.03-.66-.08-1.31-.24-1.92-.52-.18-.08-.35-.18-.52-.27-.11-.06-.17-.03-.18.1,0,.04,0,.07,0,.11,0,.35,0,.7,0,1.04Z"/>
      <path class="cls-1" d="m31.52,25.48v-.16c0,.05,0,.11,0,.16Z"/>
      <path class="cls-1" d="m0,5.25s0,.07,0,.1c0-.03,0-.07,0-.1Z"/>
      <path class="cls-1" d="m9.96,10.42c.23,0,.44-.02.66-.02.37,0,.74-.02,1.1,0,.52.03,1.03.12,1.49.39.6.36.9.9.94,1.59.01.24,0,.49-.04.74-.09.58-.44.98-.93,1.28-.32.19-.67.28-1.02.36-.35.08-.71.11-1.06.1-.33,0-.65,0-.98,0-.05,0-.1,0-.15-.01v-4.41Z"/>
    </g>
  </g>
</svg>